# xmcd CD database file generated by OrangeCD 5.2
#
# Track frame offsets:
#	150
#	29074
#	51195
#	68806
#	88518
#	125449
#	144249
#	167177
#	195337
#
# Disc length: 3130 seconds
#
# Revision: 1
# Processed by: cddbd v1.5.1PL0 Copyright (c) Steve Scherf et al.
# Submitted via: OrangeCD 5.2
#
DISCID=790c3809
DTITLE=Dave Fiester and the Legendary Groove Monsters - I Gotta Cure for That
DYEAR=1900
DGENRE=Blues
TTITLE0=Built for Comfort
TTITLE1=Got My Mojo Workin'
TTITLE2=I Gotta Cure for That
TTITLE3=How Come It Is?
TTITLE4=Blues Man
TTITLE5=I Can Tell
TTITLE6=Back to the Chicken Shack
TTITLE7=Ain't Nobody's Business
TTITLE8=Prowler
EXTD=
EXTT0=
EXTT1=
EXTT2=
EXTT3=
EXTT4=
EXTT5=
EXTT6=
EXTT7=
EXTT8=
PLAYORDER=
